<svg width="1297" height="150" viewBox="0 0 1297 150" fill="none" xmlns="http://www.w3.org/2000/svg"><path d="M77.6 3.6L133.2 146h-21l-15.8-43.6H36.6L20.4 146H.4l56-142.4h21.2zm13.2 83.8L66.6 21.6 42 87.4h48.8zM318.752 3.6l-60 57.2 62.4 85.2h-24l-51.6-72.4-23.6 22.4v50h-18.8V3.6h18.8v70.6l72.2-70.6h24.6zm116.598 0V20h-47.8v126h-18.8V20h-47.8V3.6h114.4zM507.878.2c21.6 0 38.4 6.8 50.4 20.4 12 13.467 18 31.133 18 53 0 22-5.933 40.133-17.8 54.4-11.867 14.267-28.667 21.4-50.4 21.4-11.067 0-21-2-29.8-6s-16-9.533-21.6-16.6c-5.467-7.067-9.667-15.133-12.6-24.2-2.8-9.067-4.2-18.867-4.2-29.4 0-22.267 6.133-40 18.4-53.2 12.4-13.2 28.933-19.8 49.6-19.8zm0 16.4c-15.867 0-28.067 5.6-36.6 16.8-8.4 11.067-12.6 24.8-12.6 41.2 0 17.867 4.467 32.133 13.4 42.8 9.067 10.533 21.133 15.8 36.2 15.8 14.933 0 26.867-5.333 35.8-16 8.933-10.667 13.4-24.867 13.4-42.6 0-17.6-4.533-31.667-13.6-42.2-8.933-10.533-20.933-15.8-36-15.8zm268.217 75.6c-1.6 18-7.866 32.067-18.8 42.2-10.8 10-25.066 15-42.8 15-20.266 0-36.333-6.667-48.2-20-11.866-13.467-17.8-31.6-17.8-54.4 0-21.333 5.934-39.067 17.8-53.2 12-14.267 28.534-21.4 49.6-21.4 15.067 0 28.334 4.067 39.8 12.2 11.467 8.133 17.867 19.4 19.2 33.8h-18.8c-2.133-9.333-6.8-16.6-14-21.8-7.2-5.333-16.066-8-26.6-8-15.866 0-27.866 5.6-36 16.8-8 11.2-12 25-12 41.4 0 18.133 4.267 32.4 12.8 42.8 8.534 10.4 20.2 15.6 35 15.6 12.134 0 21.8-3.467 29-10.4 7.2-7.067 11.534-17.267 13-30.6h18.8zM912.631 3.6V146h-18.8V79.4h-75.2V146h-18.8V3.6h18.8V63h75.2V3.6h18.8zm85.136 81.6l-47 60.8h-23.2l47.6-61.4c-11.333-1.467-20.066-5.6-26.2-12.4-6.133-6.8-9.2-16.067-9.2-27.8 0-13.2 3.934-23.267 11.8-30.2 8-7.067 19.067-10.6 33.2-10.6h61.203V146h-18.8V85.2h-29.403zm29.403-16V19.6h-36.003c-21.6 0-32.4 8.267-32.4 24.8s10.8 24.8 32.4 24.8h36.003zm155.4-65.6V146h-18.8V20h-52.6l-2.8 80.2c-.54 14.933-3.6 26.8-9.2 35.6-5.47 8.8-13.4 13.2-23.8 13.2-4.27 0-8.8-.933-13.6-2.8v-16c2.13 1.333 5.53 2 10.2 2 3.86 0 6.93-.867 9.2-2.6 2.4-1.867 4.46-6 6.2-12.4 1.86-6.4 2.93-15.333 3.2-26.8l2.6-86.8h89.4zm27.11 44.6c0-13.867 3.8-25.2 11.4-34 7.73-8.8 18.93-13.2 33.6-13.2 12.8 0 23 3.467 30.6 10.4 7.73 6.933 11.6 16.267 11.6 28 0 7.067-1.27 13.2-3.8 18.4-2.53 5.067-6.47 10.067-11.8 15-.67.667-2.4 2.267-5.2 4.8-2.67 2.4-4.2 3.867-4.6 4.4-.4.533-1.53 1.8-3.4 3.8-1.73 2-2.73 3.6-3 4.8-.27 1.067-.8 2.733-1.6 5s-1.27 4.667-1.4 7.2c-.13 2.4-.2 5.267-.2 8.6h-16.4v-1.2c0-6 .27-10.933.8-14.8.67-3.867 2.07-7.6 4.2-11.2 2.27-3.733 4.33-6.667 6.2-8.8 2-2.133 5.6-5.8 10.8-11 4.27-4.267 7.2-8.067 8.8-11.4 1.73-3.467 2.6-7.333 2.6-11.6 0-7.733-2.2-13.867-6.6-18.4-4.4-4.533-10.33-6.8-17.8-6.8-17.47 0-26.8 10.667-28 32h-16.8zm54.2 77.6V146h-21v-20.2h21z" fill="#DFE3E8"/></svg>