<svg width="88" height="145" viewBox="0 0 88 145" fill="none" xmlns="http://www.w3.org/2000/svg">
<path d="M6.85453e-07 47.2C6.85453e-07 33.3333 3.8 22 11.4 13.2C19.1333 4.39999 30.3333 -4.76837e-06 45 -4.76837e-06C57.8 -4.76837e-06 68 3.46666 75.6 10.4C83.3333 17.3333 87.2 26.6667 87.2 38.4C87.2 45.4667 85.9333 51.6 83.4 56.8C80.8667 61.8667 76.9333 66.8667 71.6 71.8C70.9333 72.4667 69.2 74.0667 66.4 76.6C63.7333 79 62.2 80.4667 61.8 81C61.4 81.5333 60.2667 82.8 58.4 84.8C56.6667 86.8 55.6667 88.4 55.4 89.6C55.1333 90.6667 54.6 92.3333 53.8 94.6C53 96.8667 52.5333 99.2667 52.4 101.8C52.2667 104.2 52.2 107.067 52.2 110.4H35.8V109.2C35.8 103.2 36.0667 98.2667 36.6 94.4C37.2667 90.5333 38.6667 86.8 40.8 83.2C43.0667 79.4667 45.1333 76.5333 47 74.4C49 72.2667 52.6 68.6 57.8 63.4C62.0667 59.1333 65 55.3333 66.6 52C68.3333 48.5333 69.2 44.6667 69.2 40.4C69.2 32.6667 67 26.5333 62.6 22C58.2 17.4667 52.2667 15.2 44.8 15.2C27.3333 15.2 18 25.8667 16.8 47.2H6.85453e-07ZM54.2 124.8V145H33.2V124.8H54.2Z" fill="#DFE3E8"/>
</svg>
