<svg width="138" height="150" viewBox="0 0 138 150" fill="none" xmlns="http://www.w3.org/2000/svg">
<path d="M68.8 0.199994C90.4 0.199994 107.2 6.99999 119.2 20.6C131.2 34.0667 137.2 51.7333 137.2 73.6C137.2 95.6 131.267 113.733 119.4 128C107.533 142.267 90.7333 149.4 69 149.4C57.9333 149.4 48 147.4 39.2 143.4C30.4 139.4 23.2 133.867 17.6 126.8C12.1333 119.733 7.93333 111.667 5 102.6C2.2 93.5333 0.8 83.7333 0.8 73.2C0.8 50.9333 6.93333 33.2 19.2 20C31.6 6.79999 48.1333 0.199994 68.8 0.199994ZM68.8 16.6C52.9333 16.6 40.7333 22.2 32.2 33.4C23.8 44.4667 19.6 58.2 19.6 74.6C19.6 92.4667 24.0667 106.733 33 117.4C42.0667 127.933 54.1333 133.2 69.2 133.2C84.1333 133.2 96.0667 127.867 105 117.2C113.933 106.533 118.4 92.3333 118.4 74.6C118.4 57 113.867 42.9333 104.8 32.4C95.8667 21.8667 83.8667 16.6 68.8 16.6Z" fill="#DFE3E8"/>
</svg>
