<svg width="129" height="150" viewBox="0 0 129 150" fill="none" xmlns="http://www.w3.org/2000/svg">
<path d="M128.4 92.2C126.8 110.2 120.533 124.267 109.6 134.4C98.8 144.4 84.5333 149.4 66.8 149.4C46.5333 149.4 30.4667 142.733 18.6 129.4C6.73333 115.933 0.800001 97.8 0.800001 75C0.800001 53.6667 6.73333 35.9333 18.6 21.8C30.6 7.53332 47.1333 0.399991 68.2 0.399991C83.2667 0.399991 96.5333 4.46666 108 12.6C119.467 20.7333 125.867 32 127.2 46.4H108.4C106.267 37.0667 101.6 29.8 94.4 24.6C87.2 19.2667 78.3333 16.6 67.8 16.6C51.9333 16.6 39.9333 22.2 31.8 33.4C23.8 44.6 19.8 58.4 19.8 74.8C19.8 92.9333 24.0667 107.2 32.6 117.6C41.1333 128 52.8 133.2 67.6 133.2C79.7333 133.2 89.4 129.733 96.6 122.8C103.8 115.733 108.133 105.533 109.6 92.2H128.4Z" fill="#DFE3E8"/>
</svg>
